<?xml version="1.0" encoding="utf-8"?>
<!-- Generator: Adobe Illustrator 27.0.0, SVG Export Plug-In . SVG Version: 6.00 Build 0)  -->
<svg version="1.1" id="Capa_1" xmlns="http://www.w3.org/2000/svg" xmlns:xlink="http://www.w3.org/1999/xlink" x="0px" y="0px"
	 viewBox="0 0 135.83 93.33" style="enable-background:new 0 0 135.83 93.33;" xml:space="preserve">
<style type="text/css">
	.st0{fill:#FFFFFF;}
	.st1{stroke:#F2F2F2;stroke-miterlimit:10;}
	.st2{fill:#FFFFFF;stroke:#999999;stroke-width:0.5;stroke-miterlimit:10;}
	.st3{opacity:0.95;fill:#FFFFFF;}
	.st4{opacity:0.9;fill:#FFFFFF;}
	.st5{opacity:0.85;fill:#FFFFFF;}
	.st6{opacity:0.8;fill:#FFFFFF;}
	.st7{opacity:0.75;fill:#FFFFFF;}
	.st8{opacity:0.7;fill:#FFFFFF;}
	.st9{opacity:0.65;fill:#FFFFFF;}
	.st10{opacity:0.6;fill:#FFFFFF;}
	.st11{opacity:0.55;fill:#FFFFFF;}
	.st12{opacity:0.5;fill:#FFFFFF;}
	.st13{opacity:0.45;fill:#FFFFFF;}
	.st14{opacity:0.4;fill:#FFFFFF;}
	.st15{opacity:0.35;fill:#FFFFFF;}
	.st16{opacity:0.3;fill:#FFFFFF;}
	.st17{fill:#838BC5;stroke:#FFFFFF;stroke-miterlimit:10;}
	.st18{fill:#CCCCCC;stroke:#FFFFFF;stroke-miterlimit:10;}
	.st19{fill:#BA9BC9;stroke:#FFFFFF;stroke-miterlimit:10;}
	.st20{opacity:0.95;}
	.st21{opacity:0.9;}
	.st22{opacity:0.85;}
	.st23{opacity:0.8;}
	.st24{opacity:0.75;}
	.st25{opacity:0.7;}
	.st26{opacity:0.65;}
	.st27{opacity:0.6;}
	.st28{opacity:0.55;}
	.st29{opacity:0.5;}
	.st30{opacity:0.45;}
	.st31{opacity:0.4;}
	.st32{opacity:0.35;}
	.st33{opacity:0.3;}
</style>
<path class="st0" d="M71.58,33.24l2.22-5.42c0.59,0.03,1.17-0.31,1.41-0.89c0.3-0.73-0.05-1.57-0.79-1.87
	c-0.74-0.3-1.57,0.06-1.88,0.79c-0.24,0.58-0.06,1.23,0.38,1.62l-2.44,5.99C70.89,33.4,71.21,33.31,71.58,33.24z"/>
<path class="st0" d="M91.78,23.42l3.86-9.44c0.62,0.06,1.22-0.29,1.47-0.89c0.3-0.73-0.05-1.57-0.79-1.87
	c-0.74-0.3-1.57,0.05-1.87,0.79c-0.23,0.56-0.08,1.18,0.34,1.58l-3.7,9.05l-5.79,1.58l3.14-7.7c0.59,0.03,1.16-0.31,1.4-0.89
	c0.3-0.73-0.05-1.57-0.79-1.87c-0.73-0.3-1.57,0.05-1.87,0.79c-0.24,0.59-0.06,1.23,0.39,1.63l-3.41,8.35l-4.41,1.2l-3.21,7.85
	c0.22,0.1,0.84,0.3,0.9,0.32l3-7.39L91.78,23.42z"/>
<g>
	<path class="st1" d="M27.18,78.98V42.3H14.63V30.97h59.03l-5,11.33h-28.3v36.68H27.18z"/>
</g>
<g>
	<path class="st2" d="M42.7,78.98v-34H61l4.58,12.35l10.51-25.35H90v47H75.88v-30.9l-12.69,30.9h-1.27L49.52,49.44v29.53H42.7z"/>
</g>
<g>
	<g>
		<path class="st0" d="M110.17,57.28c0.05-0.61,0.06-1.22,0.08-1.83l1.56,0c-0.01,0.66-0.03,1.31-0.08,1.97L110.17,57.28z"/>
		<path class="st3" d="M109.88,59.56c0.05-0.3,0.1-0.6,0.15-0.9l0.11-0.91l1.55,0.18l-0.12,0.98c-0.04,0.33-0.1,0.65-0.16,0.97
			L109.88,59.56z"/>
		<polygon class="st4" points="109.37,61.8 109.6,60.92 109.79,60.03 111.32,60.38 111.11,61.34 110.86,62.29 		"/>
		<path class="st5" d="M108.64,63.97c0.21-0.56,0.42-1.13,0.59-1.71l1.48,0.53c-0.19,0.63-0.41,1.24-0.64,1.85L108.64,63.97z"/>
		<path class="st6" d="M107.7,66.04c0.15-0.26,0.26-0.54,0.4-0.81c0.13-0.27,0.25-0.55,0.36-0.83l1.42,0.69
			c-0.12,0.3-0.25,0.6-0.39,0.89c-0.14,0.29-0.27,0.59-0.43,0.87L107.7,66.04z"/>
		<path class="st7" d="M106.56,67.99l0.25-0.37l0.23-0.39c0.15-0.26,0.31-0.51,0.45-0.78l1.35,0.85c-0.15,0.29-0.31,0.56-0.48,0.84
			l-0.25,0.41l-0.26,0.4L106.56,67.99z"/>
		<path class="st8" d="M105.23,69.8c0.38-0.45,0.72-0.94,1.07-1.42l1.26,1c-0.37,0.52-0.74,1.04-1.15,1.53L105.23,69.8z"/>
		<polygon class="st9" points="103.74,71.46 104.36,70.82 104.94,70.16 106.09,71.3 105.46,72.01 104.8,72.69 		"/>
		<path class="st10" d="M102.1,72.93l0.67-0.56c0.22-0.19,0.43-0.4,0.65-0.59l1.04,1.26c-0.23,0.21-0.46,0.44-0.7,0.64l-0.72,0.61
			L102.1,72.93z"/>
		<path class="st11" d="M100.32,74.21c0.25-0.15,0.48-0.32,0.72-0.48c0.24-0.16,0.47-0.34,0.7-0.52l0.91,1.37
			c-0.25,0.19-0.5,0.38-0.75,0.56c-0.26,0.17-0.51,0.36-0.77,0.52L100.32,74.21z"/>
		<path class="st12" d="M98.42,75.28c0.26-0.12,0.51-0.26,0.76-0.4c0.25-0.14,0.51-0.27,0.75-0.43l0.77,1.47
			c-0.26,0.17-0.53,0.32-0.8,0.46c-0.27,0.15-0.54,0.3-0.82,0.43L98.42,75.28z"/>
		<path class="st13" d="M96.44,76.13c0.54-0.19,1.06-0.42,1.58-0.65l0.62,1.55c-0.56,0.25-1.13,0.5-1.71,0.7L96.44,76.13z"/>
		<path class="st14" d="M94.38,76.74c0.27-0.07,0.55-0.13,0.82-0.21l0.82-0.25l0.46,1.61l-0.88,0.27c-0.29,0.09-0.59,0.15-0.89,0.23
			L94.38,76.74z"/>
		<polygon class="st15" points="92.27,77.12 93.11,77 93.94,76.84 94.24,78.49 93.35,78.67 92.44,78.79 		"/>
		<path class="st16" d="M90.13,77.25l0.85-0.02c0.28-0.02,0.56-0.04,0.85-0.07l0.14,1.68c-0.3,0.02-0.61,0.05-0.91,0.07l-0.91,0.02
			L90.13,77.25z"/>
	</g>
	<g>
		<path class="st14" d="M91.82,33.68c-0.28-0.02-0.56-0.05-0.85-0.07l-0.85-0.02l0.01-1.68l0.91,0.02c0.3,0.02,0.61,0.05,0.91,0.07
			L91.82,33.68z"/>
		<polygon class="st14" points="93.94,34 93.11,33.84 92.27,33.72 92.44,32.05 93.35,32.18 94.24,32.35 		"/>
		<path class="st12" d="M96.02,34.56l-0.82-0.25c-0.27-0.08-0.55-0.14-0.82-0.21l0.33-1.64c0.3,0.08,0.6,0.14,0.89,0.23l0.88,0.27
			L96.02,34.56z"/>
		<path class="st12" d="M98.02,35.37c-0.52-0.23-1.05-0.46-1.58-0.65l0.5-1.6c0.58,0.2,1.15,0.45,1.71,0.7L98.02,35.37z"/>
		<path class="st10" d="M99.94,36.39c-0.24-0.16-0.5-0.29-0.75-0.43c-0.25-0.14-0.5-0.28-0.76-0.4l0.65-1.53
			c0.28,0.13,0.55,0.28,0.82,0.43c0.27,0.15,0.54,0.29,0.8,0.46L99.94,36.39z"/>
		<path class="st10" d="M101.74,37.63c-0.23-0.18-0.46-0.36-0.7-0.52c-0.24-0.16-0.47-0.34-0.72-0.48l0.8-1.45
			c0.27,0.16,0.52,0.35,0.77,0.52c0.26,0.17,0.51,0.36,0.75,0.56L101.74,37.63z"/>
		<path class="st10" d="M103.41,39.07c-0.22-0.2-0.42-0.41-0.65-0.59l-0.67-0.56l0.93-1.35l0.72,0.61c0.24,0.2,0.46,0.43,0.7,0.64
			L103.41,39.07z"/>
		<polygon class="st8" points="104.94,40.68 104.36,40.02 103.74,39.39 104.8,38.15 105.46,38.83 106.09,39.54 		"/>
		<path class="st8" d="M106.3,42.46c-0.34-0.49-0.69-0.97-1.07-1.42l1.17-1.11c0.41,0.49,0.78,1.01,1.15,1.53L106.3,42.46z"/>
		<path class="st6" d="M107.48,44.39c-0.14-0.27-0.29-0.52-0.45-0.78l-0.23-0.39l-0.25-0.37l1.28-0.97l0.26,0.4l0.25,0.42
			c0.16,0.28,0.33,0.55,0.48,0.84L107.48,44.39z"/>
		<path class="st6" d="M108.46,46.44c-0.11-0.28-0.23-0.56-0.36-0.83c-0.13-0.27-0.25-0.55-0.4-0.81l1.36-0.82
			c0.16,0.28,0.29,0.58,0.43,0.87c0.14,0.29,0.27,0.59,0.39,0.89L108.46,46.44z"/>
		<path class="st4" d="M109.23,48.59c-0.17-0.58-0.38-1.15-0.59-1.71l1.44-0.66c0.23,0.61,0.45,1.22,0.64,1.85L109.23,48.59z"/>
		<polygon class="st4" points="109.79,50.81 109.6,49.92 109.37,49.04 110.86,48.55 111.11,49.5 111.32,50.46 		"/>
		<path class="st4" d="M110.13,53.09l-0.11-0.91c-0.04-0.3-0.1-0.6-0.15-0.9l1.53-0.32c0.05,0.32,0.11,0.64,0.16,0.97l0.12,0.98
			L110.13,53.09z"/>
		<path class="st0" d="M110.27,55.29c-0.01-0.68-0.02-1.36-0.08-2.04l1.51-0.16c0.06,0.73,0.07,1.46,0.08,2.2L110.27,55.29z"/>
	</g>
</g>
</svg>
