<?xml version="1.0" encoding="utf-8"?>
<!-- Generator: Adobe Illustrator 27.0.0, SVG Export Plug-In . SVG Version: 6.00 Build 0)  -->
<svg version="1.1" id="Layer_1" xmlns="http://www.w3.org/2000/svg" xmlns:xlink="http://www.w3.org/1999/xlink" x="0px" y="0px"
	 viewBox="0 0 100.76 71.36" style="enable-background:new 0 0 100.76 71.36;" xml:space="preserve">
<style type="text/css">
	.st0{fill:#053D5B;}
	.st1{opacity:0.95;fill:#053D5B;}
	.st2{opacity:0.9;fill:#053D5B;}
	.st3{opacity:0.85;fill:#053D5B;}
	.st4{opacity:0.8;fill:#053D5B;}
	.st5{opacity:0.75;fill:#053D5B;}
	.st6{opacity:0.7;fill:#053D5B;}
	.st7{opacity:0.65;fill:#053D5B;}
	.st8{opacity:0.6;fill:#053D5B;}
	.st9{opacity:0.55;fill:#053D5B;}
	.st10{opacity:0.5;fill:#053D5B;}
	.st11{opacity:0.45;fill:#053D5B;}
	.st12{opacity:0.4;fill:#053D5B;}
	.st13{opacity:0.35;fill:#053D5B;}
	.st14{opacity:0.3;fill:#053D5B;}
</style>
<path class="st0" d="M61.36,14.97c-0.74-0.3-1.57,0.06-1.88,0.79c-0.24,0.58-0.06,1.23,0.38,1.62l-1.43,3.51H1.58v11.33h12.55v36.68
	h13.18V32.21h28.3l5-11.33h-1.16l1.29-3.15c0.59,0.03,1.17-0.31,1.41-0.89C62.45,16.11,62.09,15.27,61.36,14.97z"/>
<path class="st0" d="M83.27,1.14c-0.74-0.3-1.57,0.05-1.87,0.79c-0.23,0.56-0.08,1.18,0.34,1.58l-3.7,9.05l-5.79,1.58l3.14-7.7
	c0.59,0.03,1.16-0.31,1.4-0.89c0.3-0.73-0.05-1.57-0.79-1.87c-0.73-0.3-1.57,0.05-1.87,0.79c-0.24,0.59-0.06,1.23,0.39,1.63
	l-3.41,8.35l-4.41,1.2l-2.55,6.24h-1.11L52.53,47.23l-4.58-12.35h-18.3v34h6.82V39.36l12.41,29.53h1.27l12.69-30.9v30.9h14.11v-47
	H65.18l2.22-5.46l11.33-3.09l3.86-9.44c0.62,0.06,1.22-0.29,1.47-0.89C84.35,2.28,84,1.44,83.27,1.14z"/>
<g>
	<g>
		<path class="st0" d="M97.12,47.19c0.05-0.61,0.06-1.22,0.08-1.83l1.56,0c-0.01,0.66-0.03,1.31-0.08,1.97L97.12,47.19z"/>
		<path class="st1" d="M96.83,49.47c0.05-0.3,0.1-0.6,0.15-0.9l0.11-0.91l1.55,0.18l-0.12,0.98c-0.04,0.33-0.1,0.65-0.16,0.97
			L96.83,49.47z"/>
		<polygon class="st2" points="96.32,51.71 96.55,50.83 96.74,49.94 98.27,50.3 98.06,51.26 97.81,52.2 		"/>
		<path class="st3" d="M95.59,53.88c0.21-0.56,0.42-1.13,0.59-1.71l1.48,0.53c-0.19,0.63-0.41,1.24-0.64,1.85L95.59,53.88z"/>
		<path class="st4" d="M94.64,55.95c0.15-0.26,0.26-0.54,0.4-0.81c0.13-0.27,0.25-0.55,0.36-0.83l1.42,0.69
			c-0.12,0.3-0.25,0.6-0.39,0.89c-0.14,0.29-0.27,0.59-0.43,0.87L94.64,55.95z"/>
		<path class="st5" d="M93.5,57.9l0.25-0.37l0.23-0.39c0.15-0.26,0.31-0.51,0.45-0.78l1.35,0.85c-0.15,0.29-0.31,0.56-0.48,0.84
			l-0.25,0.41l-0.26,0.4L93.5,57.9z"/>
		<path class="st6" d="M92.18,59.71c0.38-0.45,0.72-0.94,1.07-1.42l1.26,1c-0.37,0.52-0.74,1.04-1.15,1.53L92.18,59.71z"/>
		<polygon class="st7" points="90.69,61.37 91.3,60.74 91.89,60.07 93.04,61.21 92.41,61.93 91.75,62.61 		"/>
		<path class="st8" d="M89.05,62.85l0.67-0.56c0.22-0.19,0.43-0.4,0.65-0.59l1.04,1.26c-0.23,0.21-0.46,0.44-0.7,0.64l-0.72,0.61
			L89.05,62.85z"/>
		<path class="st9" d="M87.26,64.12c0.25-0.15,0.48-0.32,0.72-0.48c0.24-0.16,0.47-0.34,0.7-0.52l0.91,1.37
			c-0.25,0.19-0.5,0.38-0.75,0.56c-0.26,0.17-0.51,0.36-0.77,0.52L87.26,64.12z"/>
		<path class="st10" d="M85.37,65.19c0.26-0.12,0.51-0.26,0.76-0.4c0.25-0.14,0.51-0.27,0.75-0.43l0.77,1.47
			c-0.26,0.17-0.53,0.32-0.8,0.46c-0.27,0.15-0.54,0.3-0.82,0.43L85.37,65.19z"/>
		<path class="st11" d="M83.38,66.04c0.54-0.19,1.06-0.42,1.58-0.65l0.62,1.55c-0.56,0.25-1.13,0.5-1.71,0.7L83.38,66.04z"/>
		<path class="st12" d="M81.32,66.66c0.27-0.07,0.55-0.13,0.82-0.21l0.82-0.25l0.46,1.61l-0.88,0.27c-0.29,0.09-0.59,0.15-0.89,0.23
			L81.32,66.66z"/>
		<polygon class="st13" points="79.21,67.03 80.05,66.92 80.89,66.76 81.19,68.41 80.29,68.58 79.38,68.71 		"/>
		<path class="st14" d="M77.08,67.17l0.85-0.02c0.28-0.02,0.56-0.04,0.85-0.07l0.14,1.68c-0.3,0.02-0.61,0.05-0.91,0.07l-0.91,0.02
			L77.08,67.17z"/>
	</g>
	<g>
		<path class="st12" d="M78.77,23.59c-0.28-0.02-0.56-0.05-0.85-0.07l-0.85-0.02l0.01-1.68L78,21.84c0.3,0.02,0.61,0.05,0.91,0.07
			L78.77,23.59z"/>
		<polygon class="st12" points="80.89,23.91 80.05,23.75 79.21,23.64 79.38,21.96 80.29,22.09 81.19,22.26 		"/>
		<path class="st10" d="M82.96,24.48l-0.82-0.25c-0.27-0.08-0.55-0.14-0.82-0.21l0.34-1.64c0.3,0.08,0.6,0.14,0.89,0.23l0.88,0.27
			L82.96,24.48z"/>
		<path class="st10" d="M84.97,25.28c-0.52-0.23-1.05-0.46-1.58-0.65l0.5-1.6c0.58,0.2,1.15,0.45,1.71,0.7L84.97,25.28z"/>
		<path class="st8" d="M86.88,26.31c-0.24-0.16-0.5-0.29-0.75-0.43c-0.25-0.14-0.5-0.28-0.76-0.4l0.65-1.53
			c0.28,0.13,0.55,0.28,0.82,0.43c0.27,0.15,0.54,0.29,0.8,0.46L86.88,26.31z"/>
		<path class="st8" d="M88.68,27.54c-0.23-0.18-0.46-0.36-0.7-0.52c-0.24-0.16-0.47-0.34-0.72-0.48l0.8-1.45
			c0.27,0.16,0.52,0.35,0.77,0.52c0.26,0.17,0.51,0.36,0.75,0.56L88.68,27.54z"/>
		<path class="st8" d="M90.36,28.98c-0.22-0.2-0.42-0.41-0.65-0.59l-0.67-0.56l0.93-1.35l0.72,0.61c0.24,0.2,0.46,0.43,0.7,0.64
			L90.36,28.98z"/>
		<polygon class="st6" points="91.89,30.59 91.3,29.93 90.69,29.3 91.75,28.06 92.41,28.74 93.04,29.46 		"/>
		<path class="st6" d="M93.25,32.38c-0.34-0.49-0.69-0.97-1.07-1.42l1.17-1.11c0.41,0.49,0.78,1.01,1.15,1.53L93.25,32.38z"/>
		<path class="st4" d="M94.42,34.3c-0.14-0.27-0.29-0.52-0.45-0.78l-0.23-0.39l-0.25-0.37l1.28-0.97l0.26,0.4l0.25,0.42
			c0.16,0.28,0.33,0.55,0.48,0.84L94.42,34.3z"/>
		<path class="st4" d="M95.4,36.35c-0.11-0.28-0.23-0.56-0.36-0.83c-0.13-0.27-0.25-0.55-0.4-0.81l1.36-0.82
			c0.16,0.28,0.29,0.58,0.43,0.87c0.14,0.29,0.27,0.59,0.39,0.89L95.4,36.35z"/>
		<path class="st2" d="M96.18,38.5c-0.17-0.58-0.38-1.15-0.59-1.71l1.44-0.66c0.23,0.61,0.45,1.22,0.64,1.85L96.18,38.5z"/>
		<polygon class="st2" points="96.74,40.73 96.55,39.84 96.32,38.95 97.81,38.46 98.06,39.41 98.27,40.37 		"/>
		<path class="st2" d="M97.08,43l-0.11-0.91c-0.04-0.3-0.1-0.6-0.15-0.9l1.53-0.32c0.05,0.32,0.11,0.64,0.16,0.97l0.12,0.98
			L97.08,43z"/>
		<path class="st0" d="M97.22,45.2c-0.01-0.68-0.02-1.36-0.08-2.04L98.65,43c0.06,0.73,0.07,1.46,0.08,2.2L97.22,45.2z"/>
	</g>
</g>
</svg>
