<?xml version="1.0" encoding="utf-8"?>
<!-- Generator: Adobe Illustrator 27.0.0, SVG Export Plug-In . SVG Version: 6.00 Build 0)  -->
<svg version="1.1" id="Capa_1" xmlns="http://www.w3.org/2000/svg" xmlns:xlink="http://www.w3.org/1999/xlink" x="0px" y="0px"
	 viewBox="0 0 135.83 93.33" style="enable-background:new 0 0 135.83 93.33;" xml:space="preserve">
<style type="text/css">
	.st0{fill:#FFFFFF;}
	.st1{stroke:#F2F2F2;stroke-miterlimit:10;}
	.st2{fill:#FFFFFF;stroke:#999999;stroke-width:0.5;stroke-miterlimit:10;}
	.st3{opacity:0.95;fill:#FFFFFF;}
	.st4{opacity:0.9;fill:#FFFFFF;}
	.st5{opacity:0.85;fill:#FFFFFF;}
	.st6{opacity:0.8;fill:#FFFFFF;}
	.st7{opacity:0.75;fill:#FFFFFF;}
	.st8{opacity:0.7;fill:#FFFFFF;}
	.st9{opacity:0.65;fill:#FFFFFF;}
	.st10{opacity:0.6;fill:#FFFFFF;}
	.st11{opacity:0.55;fill:#FFFFFF;}
	.st12{opacity:0.5;fill:#FFFFFF;}
	.st13{opacity:0.45;fill:#FFFFFF;}
	.st14{opacity:0.4;fill:#FFFFFF;}
	.st15{opacity:0.35;fill:#FFFFFF;}
	.st16{opacity:0.3;fill:#FFFFFF;}
	.st17{fill:#838BC5;stroke:#FFFFFF;stroke-miterlimit:10;}
	.st18{fill:#CCCCCC;stroke:#FFFFFF;stroke-miterlimit:10;}
	.st19{fill:#BA9BC9;stroke:#FFFFFF;stroke-miterlimit:10;}
	.st20{opacity:0.95;}
	.st21{opacity:0.9;}
	.st22{opacity:0.85;}
	.st23{opacity:0.8;}
	.st24{opacity:0.75;}
	.st25{opacity:0.7;}
	.st26{opacity:0.65;}
	.st27{opacity:0.6;}
	.st28{opacity:0.55;}
	.st29{opacity:0.5;}
	.st30{opacity:0.45;}
	.st31{opacity:0.4;}
	.st32{opacity:0.35;}
	.st33{opacity:0.3;}
</style>
<g>
	<path d="M76.27,34.86l2.21-5.42c0.59,0.03,1.17-0.31,1.41-0.89c0.3-0.73-0.05-1.57-0.79-1.87c-0.73-0.3-1.57,0.06-1.88,0.79
		c-0.24,0.58-0.06,1.23,0.38,1.62l-2.44,5.99C75.58,35.02,75.9,34.92,76.27,34.86z"/>
	<path d="M96.48,25.04l3.86-9.44c0.61,0.06,1.22-0.29,1.47-0.89c0.3-0.73-0.05-1.57-0.79-1.87c-0.74-0.3-1.57,0.05-1.87,0.79
		c-0.23,0.56-0.08,1.18,0.34,1.58l-3.7,9.05L90,25.83l3.14-7.7c0.59,0.03,1.16-0.31,1.4-0.89c0.3-0.73-0.05-1.57-0.79-1.87
		c-0.73-0.3-1.57,0.05-1.87,0.79c-0.24,0.59-0.06,1.23,0.39,1.63l-3.41,8.35l-4.41,1.2l-3.21,7.85c0.22,0.1,0.84,0.3,0.9,0.32
		l3-7.39L96.48,25.04z"/>
	<g>
		<path class="st1" d="M31.88,80.59V43.92H19.33V32.59h59.03l-5,11.33h-28.3v36.68H31.88z"/>
	</g>
	<g>
		<path class="st2" d="M47.39,80.59v-34h18.3l4.58,12.35l10.51-25.35h13.9v47H80.58v-30.9l-12.69,30.9h-1.27L54.21,51.06v29.53
			H47.39z"/>
	</g>
	<g>
		<g>
			<path d="M114.87,58.89c0.05-0.61,0.06-1.22,0.08-1.83l1.56,0c-0.01,0.66-0.03,1.31-0.08,1.97L114.87,58.89z"/>
			<path class="st20" d="M114.58,61.18c0.05-0.3,0.1-0.6,0.15-0.9l0.11-0.91l1.55,0.18l-0.12,0.98c-0.05,0.33-0.1,0.65-0.16,0.97
				L114.58,61.18z"/>
			<polygon class="st21" points="114.06,63.42 114.3,62.54 114.49,61.65 116.02,62 115.81,62.96 115.56,63.91 			"/>
			<path class="st22" d="M113.34,65.59c0.21-0.57,0.42-1.13,0.59-1.71l1.48,0.53c-0.19,0.63-0.41,1.24-0.64,1.85L113.34,65.59z"/>
			<path class="st23" d="M112.39,67.66c0.15-0.26,0.26-0.54,0.4-0.81c0.13-0.27,0.25-0.55,0.37-0.83l1.42,0.69
				c-0.12,0.3-0.25,0.6-0.39,0.89c-0.14,0.29-0.27,0.59-0.43,0.87L112.39,67.66z"/>
			<path class="st24" d="M111.25,69.61l0.24-0.37l0.23-0.39c0.15-0.26,0.31-0.51,0.45-0.78l1.35,0.85
				c-0.15,0.29-0.32,0.56-0.48,0.84l-0.25,0.42l-0.26,0.4L111.25,69.61z"/>
			<path class="st25" d="M109.93,71.42c0.38-0.45,0.72-0.94,1.07-1.42l1.26,1c-0.37,0.52-0.74,1.04-1.15,1.53L109.93,71.42z"/>
			<polygon class="st26" points="108.44,73.07 109.05,72.44 109.64,71.78 110.79,72.92 110.16,73.63 109.5,74.31 			"/>
			<path class="st27" d="M106.8,74.55l0.67-0.56c0.22-0.19,0.43-0.4,0.64-0.59l1.04,1.26c-0.23,0.21-0.45,0.44-0.7,0.64l-0.72,0.61
				L106.8,74.55z"/>
			<path class="st28" d="M105.01,75.83c0.25-0.14,0.48-0.32,0.72-0.48c0.24-0.16,0.47-0.34,0.7-0.52l0.91,1.37
				c-0.25,0.19-0.5,0.38-0.76,0.56c-0.26,0.17-0.51,0.36-0.77,0.52L105.01,75.83z"/>
			<path class="st29" d="M103.12,76.9c0.26-0.12,0.51-0.26,0.76-0.4c0.25-0.14,0.51-0.27,0.75-0.43l0.77,1.47
				c-0.26,0.17-0.53,0.32-0.8,0.46c-0.27,0.15-0.54,0.3-0.82,0.43L103.12,76.9z"/>
			<path class="st30" d="M101.13,77.74c0.54-0.19,1.06-0.42,1.58-0.65l0.62,1.55c-0.56,0.25-1.13,0.5-1.71,0.7L101.13,77.74z"/>
			<path class="st31" d="M99.07,78.36c0.27-0.07,0.55-0.13,0.82-0.21l0.82-0.25l0.46,1.61l-0.88,0.27C100,79.86,99.7,79.93,99.41,80
				L99.07,78.36z"/>
			<polygon class="st32" points="96.96,78.74 97.8,78.62 98.64,78.46 98.94,80.11 98.04,80.29 97.13,80.41 			"/>
			<path class="st33" d="M94.82,78.87l0.85-0.02c0.28-0.02,0.56-0.04,0.85-0.07l0.14,1.68c-0.3,0.02-0.61,0.05-0.91,0.07l-0.91,0.02
				L94.82,78.87z"/>
		</g>
		<g>
			<path class="st31" d="M96.52,35.29c-0.28-0.02-0.56-0.05-0.85-0.07l-0.85-0.02l0.01-1.68l0.91,0.02c0.3,0.02,0.61,0.05,0.91,0.07
				L96.52,35.29z"/>
			<polygon class="st31" points="98.64,35.62 97.8,35.46 96.96,35.34 97.13,33.67 98.04,33.79 98.94,33.97 			"/>
			<path class="st29" d="M100.71,36.18l-0.82-0.25c-0.27-0.08-0.55-0.14-0.82-0.21l0.33-1.65c0.3,0.08,0.6,0.14,0.89,0.23l0.88,0.27
				L100.71,36.18z"/>
			<path class="st29" d="M102.72,36.98c-0.52-0.23-1.05-0.46-1.58-0.65l0.49-1.6c0.58,0.2,1.15,0.45,1.71,0.7L102.72,36.98z"/>
			<path class="st27" d="M104.63,38.01c-0.24-0.16-0.5-0.29-0.75-0.43c-0.25-0.14-0.5-0.28-0.76-0.4l0.65-1.53
				c0.28,0.13,0.55,0.28,0.82,0.43c0.27,0.15,0.54,0.29,0.8,0.46L104.63,38.01z"/>
			<path class="st27" d="M106.43,39.25c-0.23-0.18-0.46-0.36-0.7-0.52c-0.24-0.16-0.47-0.34-0.72-0.48l0.8-1.45
				c0.27,0.16,0.52,0.35,0.77,0.52c0.26,0.17,0.51,0.36,0.76,0.56L106.43,39.25z"/>
			<path class="st27" d="M108.11,40.68c-0.21-0.2-0.42-0.41-0.64-0.59l-0.67-0.56l0.93-1.35l0.72,0.61c0.24,0.2,0.46,0.43,0.7,0.64
				L108.11,40.68z"/>
			<polygon class="st25" points="109.64,42.3 109.05,41.64 108.44,41 109.5,39.77 110.16,40.45 110.79,41.16 			"/>
			<path class="st25" d="M110.99,44.08c-0.34-0.48-0.69-0.97-1.07-1.42l1.17-1.11c0.41,0.49,0.78,1.01,1.15,1.53L110.99,44.08z"/>
			<path class="st23" d="M112.17,46.01c-0.14-0.27-0.29-0.52-0.45-0.78l-0.23-0.39l-0.24-0.37l1.28-0.97l0.26,0.4l0.25,0.42
				c0.16,0.28,0.33,0.55,0.48,0.84L112.17,46.01z"/>
			<path class="st23" d="M113.15,48.06c-0.12-0.28-0.23-0.56-0.37-0.83c-0.13-0.27-0.25-0.55-0.4-0.81l1.36-0.82
				c0.16,0.28,0.28,0.58,0.43,0.87c0.14,0.29,0.27,0.59,0.39,0.89L113.15,48.06z"/>
			<path class="st21" d="M113.93,50.21c-0.17-0.58-0.38-1.15-0.59-1.71l1.44-0.66c0.23,0.61,0.46,1.22,0.64,1.85L113.93,50.21z"/>
			<polygon class="st21" points="114.49,52.43 114.3,51.54 114.06,50.66 115.56,50.17 115.81,51.12 116.02,52.08 			"/>
			<path class="st21" d="M114.83,54.71l-0.11-0.91c-0.04-0.3-0.1-0.6-0.15-0.9l1.53-0.32c0.05,0.32,0.11,0.65,0.16,0.97l0.12,0.98
				L114.83,54.71z"/>
			<path d="M114.97,56.91c-0.01-0.68-0.02-1.36-0.08-2.04l1.51-0.16c0.06,0.73,0.07,1.46,0.08,2.2L114.97,56.91z"/>
		</g>
	</g>
</g>
</svg>
